<?xml version="1.0" encoding="utf-8"?>
<!-- Generator: Adobe Illustrator 24.0.1, SVG Export Plug-In . SVG Version: 6.00 Build 0)  -->
<svg version="1.1" id="Layer_1" xmlns="http://www.w3.org/2000/svg" xmlns:xlink="http://www.w3.org/1999/xlink" x="0px" y="0px"
	 viewBox="0 0 189 325.7" style="enable-background:new 0 0 189 325.7;" xml:space="preserve">
<style type="text/css">
	.st0{fill-rule:evenodd;clip-rule:evenodd;fill:url(#SVGID_1_);}
	.st1{fill-rule:evenodd;clip-rule:evenodd;fill:url(#SVGID_2_);}
	.st2{fill-rule:evenodd;clip-rule:evenodd;fill:url(#SVGID_3_);}
	.st3{fill:#242424;}
</style>
<g>
	<linearGradient id="SVGID_1_" gradientUnits="userSpaceOnUse" x1="139.7178" y1="95.696" x2="140.9178" y2="70.4961">
		<stop  offset="0" style="stop-color:#D22027"/>
		<stop  offset="5.602539e-02" style="stop-color:#C42C32"/>
		<stop  offset="0.2273" style="stop-color:#9C4057"/>
		<stop  offset="0.3894" style="stop-color:#794B72"/>
		<stop  offset="0.5376" style="stop-color:#575188"/>
		<stop  offset="0.6691" style="stop-color:#345598"/>
		<stop  offset="0.7791" style="stop-color:#0257A3"/>
		<stop  offset="0.854" style="stop-color:#0057A8"/>
	</linearGradient>
	<path class="st0" d="M189,78.1L93.6,28v19L189,97.1V78.1z"/>
	<linearGradient id="SVGID_2_" gradientUnits="userSpaceOnUse" x1="94.5" y1="197.6714" x2="94.5" y2="79.9252">
		<stop  offset="0" style="stop-color:#D22027"/>
		<stop  offset="6.560135e-02" style="stop-color:#C42C32"/>
		<stop  offset="0.2661" style="stop-color:#9C4057"/>
		<stop  offset="0.456" style="stop-color:#794B72"/>
		<stop  offset="0.6295" style="stop-color:#575188"/>
		<stop  offset="0.7835" style="stop-color:#345598"/>
		<stop  offset="0.9122" style="stop-color:#0257A3"/>
		<stop  offset="1" style="stop-color:#0057A8"/>
	</linearGradient>
	<path class="st1" d="M95,52.1l-95,49v123c36.4-20.7,86-22,86-22v-6c0,0-28-5-28-23c0-18,36-46,36-46s36,27.3,36,45
		c0,20.7-27,24-27,24s0.3,6,0,6c55,3.3,86,21,86,21v-121L95,52.1z M174,205.1c0,0-12.3-5.8-35-9c0,0,13-7,13-24
		c0-22.5-53-50.5-53-54c0-3.5,0-17,0-17h-9c0,0,0,14,0,17s-54,30.7-54,54c0,18.5,14,24,14,24s-26,4.5-37,9v-92l80-42l81,42V205.1z"
		/>
	<linearGradient id="SVGID_3_" gradientUnits="userSpaceOnUse" x1="44.5093" y1="71.5798" x2="50.0142" y2="9.4528">
		<stop  offset="0" style="stop-color:#D22027"/>
		<stop  offset="7.335049e-02" style="stop-color:#C02F37"/>
		<stop  offset="0.2166" style="stop-color:#9D4055"/>
		<stop  offset="0.3598" style="stop-color:#7F496D"/>
		<stop  offset="0.4999" style="stop-color:#624F81"/>
		<stop  offset="0.636" style="stop-color:#455391"/>
		<stop  offset="0.767" style="stop-color:#26559D"/>
		<stop  offset="0.8908" style="stop-color:#0057A4"/>
		<stop  offset="1" style="stop-color:#0057A8"/>
	</linearGradient>
	<path class="st2" d="M0,51.1L95.4,1v19L0,70.1V51.1z"/>
	<g>
		<path class="st3" d="M8.3,267.9v24.1H0v-49.5h8.3v21.7l9-21.7h8.2l-9.6,22.3l9.9,27.2H17L8.3,267.9z"/>
		<path class="st3" d="M29.3,291.9v-7.7h2c2.6,0,3.8-1.3,4.5-3.8h-2.3l-7.8-38h8.7l4.5,26.7l5-26.7h8l-8,38.7
			c-1.5,6.9-4.1,10.8-11.8,10.8H29.3z"/>
		<path class="st3" d="M54,242.5h12.3c8.4,0,11.5,4.2,11.5,11.1V264c0,6.9-3.1,11.2-11.5,11.2h-4v16.8H54V242.5z M62.3,249.3v19.5
			h3.1c2.8,0,4.1-1.4,4.1-4.1v-11.4c0-2.7-1.2-4-4.1-4H62.3z"/>
		<path class="st3" d="M81,279.2v-23.9c0-7.7,3.6-13.4,12.4-13.4c9.2,0,11.7,5.1,11.7,12.4v5.8h-7.6v-6.5c0-3.1-1-4.8-4-4.8
			c-3,0-4.2,2.1-4.2,5.1v26.6c0,3,1.2,5.1,4.2,5.1c3,0,4-1.9,4-4.8v-9.1h7.6v8.5c0,7.1-2.9,12.3-11.7,12.3
			C84.6,292.5,81,286.8,81,279.2z"/>
		<path class="st3" d="M116.9,267.9v24.1h-8.3v-49.5h8.3v21.7l9-21.7h8.2l-9.6,22.3l9.9,27.2h-8.8L116.9,267.9z"/>
		<path class="st3" d="M135.1,291.9l9.3-49.5h9.5l9.4,49.5h-8.5l-1.5-9h-8.8l-1.5,9H135.1z M145.5,276.3h6.6l-3.3-19.8h-0.1
			L145.5,276.3z"/>
		<path class="st3" d="M172.6,291.9h-8.8l8.2-21c-4.7-1.2-6.6-4.2-6.6-9.6v-7.8c0-6.9,3.1-11.1,11.5-11.1H189v49.5h-8.3v-21.5
			L172.6,291.9z M180.7,266.1v-16.9h-2.8c-2.8,0-4.1,1.3-4.1,4v8.8c0,2.6,1.2,4.1,4.1,4.1H180.7z"/>
	</g>
	<g>
		<path class="st3" d="M7,314.8H3.6v9.4H0v-21.3h3.6v9H7v-9h3.6v21.3H7V314.8z"/>
		<path class="st3" d="M12.8,302.9h8.5v2.9h-5v6.1h3.5v2.9h-3.5v6.5h5v2.9h-8.5V302.9z"/>
		<path class="st3" d="M22.6,321.3h0.3c1.4,0,1.8-1.6,1.9-4.6c0.1-3.1,0.3-13.8,0.3-13.8h9.5v18.4h1.3v5.4h-3.1v-2.5h-7v2.5h-3.1
			V321.3z M31,321.3v-15.5h-2.6c-0.1,3.5-0.2,9-0.3,10.9c-0.1,1.9-0.3,3.4-1,4.6H31z"/>
		<path class="st3" d="M37.3,302.9h5.2c3.6,0,4.8,1.7,4.8,4.7v2.2c0,1.8-0.7,2.9-2.1,3.4c1.8,0.4,2.7,1.6,2.7,3.5v2.8
			c0,3-1.4,4.7-4.9,4.7h-5.6V302.9z M40.9,311.9h1.3c1.2,0,1.7-0.6,1.7-1.7v-2.6c0-1.2-0.5-1.7-1.7-1.7h-1.2V311.9z M40.9,314.7v6.7
			h1.6c1.2,0,1.8-0.6,1.8-1.7v-3.2c0-1.1-0.5-1.7-1.8-1.7H40.9z"/>
		<path class="st3" d="M49.7,302.9H53v13.3l3.9-13.3h3.6v21.3h-3.3V311l-3.9,13.3h-3.6V302.9z"/>
		<path class="st3" d="M66.2,312.7l-4-9.7h3.5l3.6,9.4v-9.4h3.5v9.4l3.6-9.4H80l-3.9,9.5l4.3,11.8h-3.7l-3.8-10.5v10.5h-3.5v-10.5
			l-3.8,10.5H62L66.2,312.7z"/>
		<path class="st3" d="M81.9,302.9h3.3v13.3l3.9-13.3h3.6v21.3h-3.3V311l-3.9,13.3h-3.6V302.9z"/>
		<path class="st3" d="M104.7,310.4L104.7,310.4l-2.5,13.8h-1.7l-2.7-13.8h-0.1v13.8h-3v-21.3H99l2.3,12h0l2.1-12h4.5v21.3h-3.3
			V310.4z"/>
		<path class="st3" d="M110.2,318.7v-10.3c0-3.3,1.6-5.7,5.4-5.7c3.8,0,5.4,2.4,5.4,5.7v10.3c0,3.3-1.6,5.7-5.4,5.7
			C111.8,324.5,110.2,322,110.2,318.7z M117.4,319.3v-11.4c0-1.3-0.6-2.2-1.9-2.2c-1.3,0-1.8,0.9-1.8,2.2v11.4
			c0,1.3,0.6,2.2,1.8,2.2C116.9,321.5,117.4,320.6,117.4,319.3z"/>
		<path class="st3" d="M123.2,318.7v-10.3c0-3.3,1.6-5.7,5.3-5.7c4,0,5.1,2.2,5.1,5.3v2.5h-3.3v-2.8c0-1.3-0.4-2.1-1.7-2.1
			c-1.3,0-1.8,0.9-1.8,2.2v11.4c0,1.3,0.5,2.2,1.8,2.2c1.3,0,1.7-0.8,1.7-2.1v-3.9h3.3v3.7c0,3-1.3,5.3-5.1,5.3
			C124.8,324.5,123.2,322,123.2,318.7z"/>
		<path class="st3" d="M135,302.9h9.5v2.9h-3v18.4h-3.6v-18.4h-3V302.9z"/>
		<path class="st3" d="M146.3,302.9h3.6v8h1.7c3.6,0,4.9,1.8,4.9,4.8v3.7c0,3-1.3,4.8-4.9,4.8h-5.3V302.9z M151.2,321.3
			c1.2,0,1.8-0.6,1.8-1.7v-4.1c0-1.2-0.5-1.8-1.8-1.8h-1.3v7.6H151.2z"/>
		<path class="st3" d="M165,310.9v13.4h-3v-21.3h3.5l3.9,12.2v-12.2h3v21.3h-3.1L165,310.9z M173.3,307.9v-1.1c0-2.5,1.3-4.1,4-4.1
			c2.7,0,4,1.6,4,4.1v1.1c0,2.5-1.3,4.1-4,4.1C174.6,312,173.3,310.4,173.3,307.9z M173.6,313h7.3v2h-7.3V313z M178.5,308.3v-1.9
			c0-0.9-0.3-1.5-1.2-1.5s-1.2,0.5-1.2,1.5v1.9c0,0.9,0.3,1.5,1.2,1.5S178.5,309.2,178.5,308.3z"/>
		<path class="st3" d="M189,302.9v21.3h-3.6v-16.3h0l-2.5,2.6h0v-3.7l3.3-3.9H189z"/>
	</g>
</g>
</svg>
